<svg xmlns="http://www.w3.org/2000/svg" xmlns:xlink="http://www.w3.org/1999/xlink" width="400" zoomAndPan="magnify" viewBox="0 0 300 149.999998" height="200" preserveAspectRatio="xMidYMid meet" version="1.0"><defs><g/><clipPath id="bcc812da67"><path d="M 28.285156 28.167969 L 87.535156 28.167969 L 87.535156 121.917969 L 28.285156 121.917969 Z M 28.285156 28.167969 " clip-rule="nonzero"/></clipPath></defs><rect x="-30" width="360" fill="#ffffff" y="-15" height="179.999997" fill-opacity="1"/><rect x="-30" width="360" fill="#ffffff" y="-15" height="179.999997" fill-opacity="1"/><rect x="-30" width="360" fill="#ffffff" y="-15" height="179.999997" fill-opacity="1"/><g fill="#000000" fill-opacity="1"><g transform="translate(93.564577, 88.124992)"><g><path d="M 28.445312 -7.21875 C 26.398438 -5.742188 25.746094 -6.871094 25.746094 -9.394531 L 25.703125 -24.050781 C 25.746094 -28.226562 24.878906 -29.964844 22.269531 -31.878906 L 14.394531 -25.3125 L 15.136719 -23.789062 C 17.746094 -25.398438 18.746094 -24.574219 18.832031 -21.875 L 18.832031 -16.484375 L 10.265625 -16.484375 C 10.222656 -16.484375 10.265625 -24.050781 10.265625 -24.050781 C 10.308594 -28.226562 9.4375 -29.964844 6.828125 -31.878906 L -1.042969 -25.3125 L -0.304688 -23.878906 C 2.261719 -25.488281 3.304688 -24.660156 3.390625 -21.964844 L 3.390625 -7.609375 C 3.347656 -3.742188 4.871094 -1.21875 6.828125 0 L 14.046875 -5.871094 L 13.003906 -7.21875 C 10.960938 -5.742188 10.523438 -6.871094 10.308594 -9.394531 C 10.222656 -10.003906 10.175781 -10.65625 10.132812 -11.394531 L 17.136719 -11.394531 L 18.832031 -13.265625 L 18.832031 -7.609375 C 18.789062 -3.742188 20.3125 -1.21875 22.269531 0 L 29.488281 -5.871094 Z M 28.445312 -7.21875 "/></g></g></g><g fill="#000000" fill-opacity="1"><g transform="translate(122.005902, 88.124992)"><g><path d="M 22.179688 -7.089844 C 20.136719 -5.609375 19.398438 -7.132812 19.441406 -9.394531 L 19.398438 -16.179688 C 19.265625 -23.179688 13.832031 -24.09375 8.742188 -24.09375 L 0.523438 -18.179688 L 1.390625 -16.832031 C 4.652344 -18.832031 9.917969 -19.136719 11.828125 -16.09375 C 5.957031 -14.394531 1.652344 -11.785156 0.957031 -7.261719 C 0.523438 -4.175781 2.828125 -0.0429688 6.394531 0 L 12.832031 -4.695312 C 13.089844 -2.652344 14.527344 0 15.960938 0 L 23.136719 -5.871094 Z M 9.785156 -5.175781 C 6.609375 -6.957031 6.871094 -12.003906 12.480469 -14.046875 L 12.527344 -6.957031 Z M 9.785156 -5.175781 "/></g></g></g><g fill="#000000" fill-opacity="1"><g transform="translate(144.097942, 88.124992)"><g><path d="M 25.007812 -7.175781 C 22.964844 -5.699219 22.269531 -7.089844 22.3125 -9.308594 L 22.269531 -16.308594 C 22.3125 -20.484375 21.398438 -24.136719 18.832031 -24.09375 C 15.746094 -24.09375 13.003906 -20.3125 10.175781 -15.441406 L 10.175781 -16.308594 C 10.222656 -20.484375 9.351562 -22.179688 6.785156 -24.09375 L -1.042969 -17.570312 L -0.21875 -16.09375 C 2.347656 -17.703125 3.261719 -16.875 3.347656 -14.179688 L 3.347656 -7.523438 C 3.347656 -3.695312 4.828125 -1.175781 6.785156 0 L 13.917969 -5.828125 L 12.917969 -7.175781 C 10.875 -5.699219 10.175781 -7.089844 10.222656 -9.308594 L 10.222656 -10.4375 C 12.222656 -14.351562 12.960938 -15.960938 14.308594 -15.832031 C 15.789062 -15.65625 15.394531 -13.046875 15.441406 -12.046875 L 15.441406 -7.523438 C 15.394531 -3.695312 16.917969 -1.175781 18.832031 0 L 26.007812 -5.828125 Z M 25.007812 -7.175781 "/></g></g></g><g fill="#000000" fill-opacity="1"><g transform="translate(169.582067, 88.124992)"><g><path d="M 22.527344 -19.875 L 22.050781 -21.355469 C 19.875 -20.617188 18.050781 -21.703125 16.441406 -22.703125 C 15.09375 -23.617188 13.699219 -24.09375 11.785156 -24.09375 L 5.609375 -20.179688 C -1.78125 -15.394531 -0.609375 -3.21875 5.652344 0 L 12.785156 -4.652344 L 12.785156 -3.480469 C 6.609375 0.738281 1.433594 5.828125 2.871094 9.480469 C 4.175781 12.4375 11.480469 9.480469 15.484375 4.394531 L 19.703125 -0.652344 L 19.660156 -17.746094 Z M 12.785156 -6.828125 L 10.917969 -5.566406 C 7.046875 -7.785156 5.394531 -14.875 7.480469 -19.050781 C 10.003906 -18.660156 12.785156 -17.222656 12.785156 -14.265625 Z M 12.785156 4.394531 C 11.570312 5.609375 10.308594 5.21875 9.65625 4.347656 C 9.003906 2.914062 10.65625 0.523438 12.785156 -1.433594 Z M 12.785156 4.394531 "/></g></g></g><g fill="#000000" fill-opacity="1"><g transform="translate(192.239456, 88.124992)"><g><path d="M 36.96875 -7.21875 C 34.925781 -5.742188 34.230469 -7.089844 34.230469 -9.394531 L 34.230469 -16.308594 C 34.273438 -20.527344 33.359375 -24.050781 30.792969 -24.09375 C 28.355469 -24.136719 25.09375 -20.660156 22.3125 -15.917969 L 22.3125 -16.308594 C 22.355469 -20.441406 21.789062 -24.09375 18.875 -24.09375 C 16.046875 -24.09375 13.003906 -20.441406 10.175781 -15.613281 L 10.175781 -16.308594 C 10.265625 -20.441406 9.394531 -22.179688 6.785156 -24.09375 L -1.042969 -17.570312 L -0.304688 -16.222656 C 2.261719 -17.789062 3.304688 -17.003906 3.347656 -14.265625 L 3.347656 -7.566406 C 3.347656 -3.742188 4.871094 -1.21875 6.785156 0 L 13.917969 -5.785156 L 12.917969 -7.175781 C 10.917969 -5.699219 10.175781 -7.089844 10.265625 -9.308594 L 10.265625 -10.4375 C 12.222656 -14.308594 13.351562 -15.960938 14.308594 -15.832031 C 15.789062 -15.65625 15.394531 -13.046875 15.441406 -12.046875 L 15.441406 -7.566406 C 15.441406 -3.742188 16.917969 -1.21875 18.875 0 L 26.007812 -5.785156 L 25.007812 -7.175781 C 23.007812 -5.699219 22.3125 -7.089844 22.355469 -9.308594 L 22.3125 -10.742188 C 24.226562 -14.394531 25.3125 -15.960938 26.269531 -15.875 C 27.75 -15.746094 27.3125 -13.089844 27.398438 -12.089844 L 27.398438 -7.566406 C 27.398438 -3.785156 28.835938 -1.175781 30.792969 0 L 37.96875 -5.828125 Z M 36.96875 -7.21875 "/></g></g></g><g fill="#000000" fill-opacity="1"><g transform="translate(229.682852, 88.124992)"><g><path d="M 22.179688 -7.089844 C 20.136719 -5.609375 19.398438 -7.132812 19.441406 -9.394531 L 19.398438 -16.179688 C 19.265625 -23.179688 13.832031 -24.09375 8.742188 -24.09375 L 0.523438 -18.179688 L 1.390625 -16.832031 C 4.652344 -18.832031 9.917969 -19.136719 11.828125 -16.09375 C 5.957031 -14.394531 1.652344 -11.785156 0.957031 -7.261719 C 0.523438 -4.175781 2.828125 -0.0429688 6.394531 0 L 12.832031 -4.695312 C 13.089844 -2.652344 14.527344 0 15.960938 0 L 23.136719 -5.871094 Z M 9.785156 -5.175781 C 6.609375 -6.957031 6.871094 -12.003906 12.480469 -14.046875 L 12.527344 -6.957031 Z M 9.785156 -5.175781 "/></g></g></g><g fill="#000000" fill-opacity="1"><g transform="translate(251.774892, 88.124992)"><g><path d="M 25.007812 -7.175781 C 22.964844 -5.699219 22.269531 -7.089844 22.3125 -9.308594 L 22.269531 -16.308594 C 22.3125 -20.484375 21.398438 -24.136719 18.832031 -24.09375 C 15.746094 -24.09375 13.003906 -20.3125 10.175781 -15.441406 L 10.175781 -16.308594 C 10.222656 -20.484375 9.351562 -22.179688 6.785156 -24.09375 L -1.042969 -17.570312 L -0.21875 -16.09375 C 2.347656 -17.703125 3.261719 -16.875 3.347656 -14.179688 L 3.347656 -7.523438 C 3.347656 -3.695312 4.828125 -1.175781 6.785156 0 L 13.917969 -5.828125 L 12.917969 -7.175781 C 10.875 -5.699219 10.175781 -7.089844 10.222656 -9.308594 L 10.222656 -10.4375 C 12.222656 -14.351562 12.960938 -15.960938 14.308594 -15.832031 C 15.789062 -15.65625 15.394531 -13.046875 15.441406 -12.046875 L 15.441406 -7.523438 C 15.394531 -3.695312 16.917969 -1.175781 18.832031 0 L 26.007812 -5.828125 Z M 25.007812 -7.175781 "/></g></g></g><g clip-path="url(#bcc812da67)"><path fill="#000000" d="M 87.535156 30.59375 L 84.175781 30.59375 L 84.175781 28.171875 L 74.761719 28.171875 L 74.761719 30.59375 L 29.367188 30.59375 L 29.367188 39.960938 L 33.070312 39.960938 L 33.070312 62.414062 L 30.8125 63.257812 C 30.050781 63.542969 29.664062 64.386719 29.949219 65.144531 C 30.152344 65.671875 30.628906 66.019531 31.148438 66.089844 C 30.550781 66.445312 30.277344 67.1875 30.535156 67.859375 C 30.78125 68.519531 31.453125 68.898438 32.121094 68.796875 C 31.390625 69.097656 31.03125 69.925781 31.3125 70.660156 C 31.523438 71.21875 32.042969 71.582031 32.601562 71.613281 C 31.367188 73.523438 29.125 77.300781 28.457031 79.765625 C 28.425781 79.84375 28.410156 79.921875 28.394531 80.007812 C 28.378906 80.09375 28.371094 80.175781 28.378906 80.261719 C 28.285156 81.695312 28.667969 83.683594 30.003906 85.144531 C 30.582031 85.769531 31.296875 86.257812 32.121094 86.597656 C 33.015625 86.960938 34.058594 87.148438 35.214844 87.148438 C 36.554688 87.148438 37.757812 86.878906 38.808594 86.335938 C 39.796875 85.832031 40.621094 85.089844 41.195312 84.183594 C 42.308594 82.445312 42.433594 80.269531 41.539062 78.359375 C 40.839844 76.867188 38.195312 72.859375 36.972656 71.023438 L 37.441406 71.023438 L 37.441406 66.847656 L 39.113281 66.21875 C 39.875 65.933594 40.261719 65.089844 39.976562 64.332031 C 39.773438 63.808594 39.296875 63.457031 38.777344 63.390625 C 39.375 63.03125 39.648438 62.289062 39.390625 61.617188 C 39.105469 60.859375 38.257812 60.472656 37.496094 60.757812 L 37.441406 60.78125 L 37.441406 39.960938 L 51.042969 39.960938 L 74.761719 63.558594 L 74.761719 121.917969 L 84.175781 121.917969 L 84.175781 39.960938 L 87.535156 39.960938 Z M 39.257812 82.960938 C 38.472656 84.191406 37.035156 84.867188 35.207031 84.867188 C 33.636719 84.867188 32.457031 84.441406 31.691406 83.605469 C 30.828125 82.660156 30.597656 81.300781 30.660156 80.378906 C 31.28125 78.035156 33.808594 73.855469 34.976562 72.148438 C 36.792969 74.871094 38.925781 78.171875 39.460938 79.3125 C 40.03125 80.527344 39.953125 81.886719 39.257812 82.960938 Z M 74.761719 50.3125 L 64.355469 39.960938 L 74.761719 39.960938 Z M 74.761719 50.3125 " fill-opacity="1" fill-rule="nonzero"/></g></svg>