<svg width="703" height="673" viewBox="0 0 703 673" fill="none" xmlns="http://www.w3.org/2000/svg">
<line y1="670.5" x2="556" y2="670.5" stroke="black" stroke-width="5"/>
<line x1="272.5" y1="668" x2="272.5" y2="5" stroke="black" stroke-width="5"/>
<line x1="270" y1="2.5" x2="556" y2="2.5" stroke="black" stroke-width="5"/>
<line x1="553.5" y1="3" x2="553.5" y2="117" stroke="black" stroke-width="5"/>
<path d="M553.985 117C524.131 117 500 141.131 500 170.985C500 200.839 524.131 224.971 553.985 224.971C568.303 224.971 582.035 219.283 592.159 209.159C602.283 199.035 607.971 185.303 607.971 170.985C607.971 141.131 583.677 117 553.985 117ZM553.985 214.174C542.531 214.174 531.546 209.623 523.447 201.524C515.347 193.425 510.797 182.44 510.797 170.985C510.797 159.531 515.347 148.546 523.447 140.447C531.546 132.347 542.531 127.797 553.985 127.797C565.44 127.797 576.425 132.347 584.524 140.447C592.623 148.546 597.174 159.531 597.174 170.985C597.174 182.44 592.623 193.425 584.524 201.524C576.425 209.623 565.44 214.174 553.985 214.174ZM576.551 148.096L570.829 153.818L565.106 148.096L559.384 153.818L565.106 159.54L559.384 165.263L565.106 170.985L570.829 165.263L576.551 170.985L582.274 165.263L576.551 159.54L582.274 153.818L576.551 148.096ZM531.419 170.985L537.142 165.263L542.864 170.985L548.587 165.263L542.864 159.54L548.587 153.818L542.864 148.096L537.142 153.818L531.419 148.096L525.697 153.818L531.419 159.54L525.697 165.263L531.419 170.985ZM553.985 181.782C541.407 181.782 530.718 189.664 526.399 200.677H581.572C577.253 189.664 566.564 181.782 553.985 181.782Z" fill="black"/>
<path d="M608.5 366C608.5 404.379 601.87 438.863 591.366 463.549C586.109 475.901 579.991 485.545 573.477 492.019C566.987 498.47 560.41 501.5 554 501.5C547.59 501.5 541.013 498.47 534.523 492.019C528.009 485.545 521.891 475.901 516.634 463.549C506.13 438.863 499.5 404.379 499.5 366C499.5 327.621 506.13 293.137 516.634 268.451C521.891 256.099 528.009 246.455 534.523 239.981C541.013 233.53 547.59 230.5 554 230.5C560.41 230.5 566.987 233.53 573.477 239.981C579.991 246.455 586.109 256.099 591.366 268.451C601.87 293.137 608.5 327.621 608.5 366Z" fill="white" stroke="black" stroke-width="11"/>
<line x1="536.103" y1="497.051" x2="493.103" y2="604.051" stroke="black" stroke-width="11"/>
<line x1="614.89" y1="604.053" x2="571.897" y2="497.05" stroke="black" stroke-width="11"/>
<line x1="699.647" y1="235.713" x2="600.835" y2="295.162" stroke="black" stroke-width="11"/>
<line x1="505.98" y1="295.157" x2="407.165" y2="235.713" stroke="black" stroke-width="11"/>
</svg>
