<svg width="129" height="101" viewBox="0 0 129 101" fill="none" xmlns="http://www.w3.org/2000/svg">
<path d="M44.9584 28.5773H17.8608C11.9423 28.5773 7.14432 33.3752 7.14432 39.2938V82.1597C7.14432 88.0782 11.9423 92.8762 17.8608 92.8762H110.737C116.656 92.8762 121.453 88.0782 121.453 82.1597V39.2938C121.453 33.3752 116.656 28.5773 110.737 28.5773H82.1597C80.1868 28.5773 78.5875 26.978 78.5875 25.0051C78.5875 23.0323 80.1868 21.433 82.1597 21.433H110.737C120.601 21.433 128.598 29.4295 128.598 39.2938V82.1597C128.598 92.0239 120.601 100.02 110.737 100.02H17.8608C7.99655 100.02 0 92.0239 0 82.1597V39.2938C0 29.4295 7.99655 21.433 17.8608 21.433H44.9584L29.6235 6.09806C28.2285 4.70304 28.2285 2.44128 29.6235 1.04626C31.0186 -0.348754 33.2803 -0.348754 34.6753 1.04626L56.1083 22.4792C57.5033 23.8742 57.5033 26.136 56.1083 27.531L34.6753 48.964C33.2803 50.359 31.0186 50.359 29.6235 48.964C28.2285 47.569 28.2285 45.3072 29.6235 43.9122L44.9584 28.5773Z" fill="black"/>
</svg>
