<svg xmlns="http://www.w3.org/2000/svg" xmlns:xlink="http://www.w3.org/1999/xlink" width="400" zoomAndPan="magnify" viewBox="0 0 300 149.999998" height="200" preserveAspectRatio="xMidYMid meet" version="1.0"><defs><g/></defs><g fill="#000000" fill-opacity="1"><g transform="translate(36.918734, 85.268955)"><g><path d="M 23.515625 0 L 5.015625 0 L 5.015625 -36.984375 L 9.25 -36.984375 L 9.25 -3.96875 L 23.515625 -3.96875 Z M 23.515625 0 "/></g></g></g><g fill="#000000" fill-opacity="1"><g transform="translate(62.281872, 85.268955)"><g><path d="M 34.34375 0 L 29.796875 0 L 25.84375 -10.046875 L 9.453125 -10.046875 L 5.5 0 L 1.0625 0 L 16.125 -36.984375 L 19.28125 -36.984375 Z M 24.25 -14 L 17.65625 -30.703125 L 11.046875 -14 Z M 24.25 -14 "/></g></g></g><g fill="#000000" fill-opacity="1"><g transform="translate(97.684592, 85.268955)"><g><path d="M 26.6875 0 L 13.578125 -15.859375 L 9.25 -15.859375 L 9.25 0 L 5.015625 0 L 5.015625 -36.984375 L 15.859375 -36.984375 C 18.210938 -36.984375 20.296875 -36.523438 22.109375 -35.609375 C 23.929688 -34.703125 25.34375 -33.445312 26.34375 -31.84375 C 27.34375 -30.238281 27.84375 -28.429688 27.84375 -26.421875 C 27.84375 -23.773438 27.003906 -21.507812 25.328125 -19.625 C 23.660156 -17.738281 21.414062 -16.550781 18.59375 -16.0625 L 31.96875 0 Z M 9.25 -33.03125 L 9.25 -19.8125 L 15.859375 -19.8125 C 18.179688 -19.8125 20.03125 -20.410156 21.40625 -21.609375 C 22.78125 -22.804688 23.46875 -24.410156 23.46875 -26.421875 C 23.46875 -28.429688 22.78125 -30.035156 21.40625 -31.234375 C 20.03125 -32.429688 18.179688 -33.03125 15.859375 -33.03125 Z M 9.25 -33.03125 "/></g></g></g><g fill="#000000" fill-opacity="1"><g transform="translate(129.916909, 85.268955)"><g><path d="M 40.15625 -36.984375 L 44.65625 0 L 40.421875 0 L 37.25 -27.265625 L 25.09375 0 L 22.984375 0 L 10.734375 -27.421875 L 7.5625 0 L 3.4375 0 L 7.921875 -36.984375 L 10.890625 -36.984375 L 24.09375 -7.34375 L 37.3125 -36.984375 Z M 40.15625 -36.984375 "/></g></g></g><g fill="#000000" fill-opacity="1"><g transform="translate(178.001192, 85.268955)"><g><path d="M 9.25 -17.171875 L 9.25 -3.96875 L 25.09375 -3.96875 L 25.09375 0 L 5.015625 0 L 5.015625 -36.984375 L 24.578125 -36.984375 L 24.578125 -33.03125 L 9.25 -33.03125 L 9.25 -21.140625 L 24.046875 -21.140625 L 24.046875 -17.171875 Z M 9.25 -17.171875 "/></g></g></g><g fill="#000000" fill-opacity="1"><g transform="translate(206.534721, 85.268955)"><g><path d="M 32.609375 -7.828125 L 32.609375 -36.984375 L 36.71875 -36.984375 L 36.71875 0 L 34.078125 0 L 9.140625 -29.171875 L 9.140625 0 L 5.015625 0 L 5.015625 -36.984375 L 7.65625 -36.984375 Z M 32.609375 -7.828125 "/></g></g></g><g fill="#000000" fill-opacity="1"><g transform="translate(248.278234, 85.268955)"><g><path d="M 9.515625 0 L 5.28125 0 L 5.28125 -36.984375 L 9.515625 -36.984375 Z M 9.515625 0 "/></g></g></g><path stroke-linecap="butt" transform="matrix(0.748936, 0, 0, 0.75, 26.069149, 23.212774)" fill="none" stroke-linejoin="miter" d="M 0.00155292 0.997552 L 330.48073 0.997552 " stroke="#000000" stroke-width="2" stroke-opacity="1" stroke-miterlimit="4"/><path stroke-linecap="butt" transform="matrix(0.750843, 0, 0, 0.75, 27.53409, 116.803178)" fill="none" stroke-linejoin="miter" d="M 0.00141984 1.002012 L 180.79829 1.002012 " stroke="#000000" stroke-width="2" stroke-opacity="1" stroke-miterlimit="4"/><g fill="#1c2120" fill-opacity="1"><g transform="translate(174.337611, 121.836589)"><g><path d="M 18.777344 -16.789062 C 18.734375 -16.933594 18.574219 -17.019531 18.429688 -16.960938 C 17.414062 -16.640625 15.859375 -16.179688 14.070312 -15.625 C 11.226562 -14.769531 7.667969 -13.695312 4.910156 -12.78125 C 3.382812 -12.257812 2.25 -11.851562 1.453125 -11.515625 C 0.144531 -10.964844 -0.0859375 -10.703125 -0.0742188 -10.414062 C -0.0585938 -10.265625 0.0273438 -10.0625 0.421875 -9.992188 C 0.4375 -9.992188 0.449219 -9.992188 0.464844 -9.992188 C 0.59375 -9.992188 0.710938 -10.078125 0.742188 -10.210938 C 0.769531 -10.324219 0.710938 -10.441406 0.625 -10.5 C 1.003906 -10.730469 2.105469 -11.253906 5.386719 -12.34375 C 6.144531 -12.589844 6.941406 -12.851562 7.753906 -13.113281 C 7.289062 -11.195312 6.621094 -8.21875 5.925781 -5.082031 C 4.953125 -0.683594 3.6875 5.011719 3.007812 7.390625 C 3.007812 7.21875 3.035156 7.027344 3.050781 6.796875 C 3.0625 6.652344 2.949219 6.507812 2.789062 6.492188 C 2.644531 6.476562 2.511719 6.59375 2.496094 6.753906 C 2.324219 8.625 2.394531 8.929688 2.714844 8.976562 C 2.746094 8.976562 2.757812 8.988281 2.789062 8.988281 C 3.050781 8.988281 3.210938 8.683594 3.527344 7.582031 C 3.730469 6.839844 4.007812 5.792969 4.355469 4.371094 C 4.980469 1.742188 5.734375 -1.65625 6.476562 -4.964844 C 7.21875 -8.277344 7.914062 -11.429688 8.378906 -13.300781 C 10.367188 -13.925781 12.445312 -14.550781 14.230469 -15.089844 C 16.03125 -15.640625 17.570312 -16.105469 18.601562 -16.4375 C 18.75 -16.484375 18.835938 -16.640625 18.777344 -16.789062 Z M 18.777344 -16.789062 "/></g></g></g><g fill="#1c2120" fill-opacity="1"><g transform="translate(182.207515, 121.836589)"><g><path d="M 6.867188 -3.3125 C 6.738281 -3.398438 6.5625 -3.355469 6.492188 -3.222656 C 4.429688 0.101562 3.703125 0.0273438 3.628906 0.015625 C 3.484375 -0.0273438 3.324219 -0.320312 3.28125 -1.03125 C 3.265625 -1.351562 3.195312 -2.308594 2.554688 -2.394531 C 1.816406 -2.496094 0.929688 -1.207031 0.128906 0.464844 C 0.625 -1.742188 1.335938 -4.777344 1.859375 -6.925781 C 3.804688 -10.425781 4.792969 -13.054688 4.386719 -13.621094 C 4.296875 -13.753906 4.152344 -13.796875 4.007812 -13.765625 C 3.382812 -13.652344 2.410156 -11.53125 1.757812 -8.84375 C 1.726562 -8.742188 -0.871094 1.875 -0.957031 3.179688 C -0.957031 3.324219 -0.871094 3.441406 -0.726562 3.472656 C -0.710938 3.472656 -0.695312 3.472656 -0.683594 3.472656 C -0.566406 3.472656 -0.449219 3.398438 -0.40625 3.296875 C 0.855469 -0.335938 2.089844 -1.84375 2.453125 -1.84375 C 2.46875 -1.84375 2.46875 -1.84375 2.46875 -1.84375 C 2.527344 -1.84375 2.6875 -1.671875 2.730469 -1.003906 C 2.746094 -0.652344 2.816406 0.378906 3.484375 0.550781 C 3.777344 0.625 4.632812 0.84375 6.957031 -2.933594 C 7.042969 -3.0625 7 -3.238281 6.867188 -3.3125 Z M 3.90625 -12.96875 C 3.789062 -12.386719 3.382812 -11.136719 2.410156 -9.179688 C 2.960938 -11.269531 3.558594 -12.476562 3.90625 -12.96875 Z M 3.90625 -12.96875 "/></g></g></g><g fill="#1c2120" fill-opacity="1"><g transform="translate(188.465681, 121.836589)"><g><path d="M 4.910156 -3.238281 C 4.777344 -3.324219 4.605469 -3.296875 4.515625 -3.164062 C 3.425781 -1.640625 2.542969 -0.683594 1.671875 -0.0585938 C 1.234375 0.246094 0.8125 0.304688 0.539062 0.101562 C 0.363281 -0.0273438 -0.175781 -0.609375 0.449219 -2.644531 C 1.859375 -3.804688 2.628906 -4.910156 2.425781 -5.488281 C 2.351562 -5.664062 2.179688 -5.78125 1.988281 -5.78125 C 1.410156 -5.765625 0.523438 -4.761719 -0.0585938 -2.890625 C -0.769531 -0.582031 -0.1875 0.261719 0.21875 0.550781 C 0.421875 0.710938 0.652344 0.785156 0.914062 0.785156 C 1.25 0.785156 1.625 0.652344 1.988281 0.390625 C 2.917969 -0.277344 3.832031 -1.261719 4.964844 -2.847656 C 5.054688 -2.976562 5.023438 -3.152344 4.910156 -3.238281 Z M 1.875 -5.171875 C 1.816406 -4.9375 1.570312 -4.472656 0.886719 -3.777344 C 1.261719 -4.617188 1.671875 -5.023438 1.875 -5.171875 Z M 1.875 -5.171875 "/></g></g></g><g fill="#1c2120" fill-opacity="1"><g transform="translate(192.691038, 121.836589)"><g/></g></g><g fill="#1c2120" fill-opacity="1"><g transform="translate(197.148717, 121.836589)"><g><path d="M 6.128906 -3.253906 C 5.996094 -3.324219 5.824219 -3.28125 5.734375 -3.152344 C 4.964844 -1.902344 3.761719 -0.785156 2.308594 0.0742188 C 2.933594 -0.785156 3.238281 -1.757812 3.222656 -2.351562 C 3.210938 -2.90625 2.949219 -3.0625 2.789062 -3.109375 C 2.339844 -3.253906 1.742188 -2.804688 0.988281 -1.726562 C 0.726562 -1.378906 0.464844 -0.914062 0.1875 -0.363281 C 0.625 -2.351562 1.21875 -4.953125 1.671875 -6.898438 C 3.601562 -10.367188 4.589844 -12.984375 4.183594 -13.550781 C 4.09375 -13.679688 3.949219 -13.722656 3.804688 -13.695312 C 3.179688 -13.578125 2.207031 -11.457031 1.554688 -8.769531 C 1.4375 -8.363281 1.308594 -7.769531 1.148438 -7.085938 C 1.132812 -7.058594 1.132812 -7.027344 1.117188 -7 C 0.335938 -3.628906 -0.945312 2.0625 -0.957031 2.542969 C -0.972656 2.6875 -0.871094 2.804688 -0.726562 2.832031 C -0.710938 2.832031 -0.695312 2.832031 -0.683594 2.832031 C -0.566406 2.832031 -0.449219 2.757812 -0.421875 2.628906 C -0.289062 2.25 -0.160156 1.875 -0.015625 1.496094 C 0.0585938 1.597656 0.1875 1.65625 0.320312 1.613281 C 1.816406 1.074219 4.574219 -0.203125 6.214844 -2.859375 C 6.289062 -2.992188 6.257812 -3.164062 6.128906 -3.253906 Z M 3.703125 -12.894531 C 3.585938 -12.316406 3.179688 -11.066406 2.207031 -9.105469 C 2.757812 -11.210938 3.355469 -12.402344 3.703125 -12.894531 Z M 0.144531 1.074219 C 0.566406 0.0742188 1.03125 -0.84375 1.4375 -1.410156 C 2.222656 -2.511719 2.570312 -2.570312 2.613281 -2.570312 C 2.644531 -2.542969 2.714844 -2.351562 2.628906 -1.917969 C 2.441406 -1.015625 1.640625 0.523438 0.144531 1.074219 Z M 0.144531 1.074219 "/></g></g></g><g fill="#1c2120" fill-opacity="1"><g transform="translate(202.608286, 121.836589)"><g><path d="M 4.910156 -3.238281 C 4.777344 -3.324219 4.605469 -3.296875 4.515625 -3.164062 C 3.425781 -1.640625 2.542969 -0.683594 1.671875 -0.0585938 C 1.234375 0.246094 0.8125 0.304688 0.539062 0.101562 C 0.363281 -0.0273438 -0.175781 -0.609375 0.449219 -2.644531 C 1.859375 -3.804688 2.628906 -4.910156 2.425781 -5.488281 C 2.351562 -5.664062 2.179688 -5.78125 1.988281 -5.78125 C 1.410156 -5.765625 0.523438 -4.761719 -0.0585938 -2.890625 C -0.769531 -0.582031 -0.1875 0.261719 0.21875 0.550781 C 0.421875 0.710938 0.652344 0.785156 0.914062 0.785156 C 1.25 0.785156 1.625 0.652344 1.988281 0.390625 C 2.917969 -0.277344 3.832031 -1.261719 4.964844 -2.847656 C 5.054688 -2.976562 5.023438 -3.152344 4.910156 -3.238281 Z M 1.875 -5.171875 C 1.816406 -4.9375 1.570312 -4.472656 0.886719 -3.777344 C 1.261719 -4.617188 1.671875 -5.023438 1.875 -5.171875 Z M 1.875 -5.171875 "/></g></g></g><g fill="#1c2120" fill-opacity="1"><g transform="translate(206.833644, 121.836589)"><g><path d="M 6.460938 -3.324219 C 6.347656 -3.425781 6.171875 -3.414062 6.070312 -3.296875 C 4.921875 -1.976562 3.121094 0.128906 2.832031 0.507812 C 2.746094 0.609375 2.65625 0.726562 2.570312 0.84375 C 2.453125 0.550781 2.308594 0.277344 2.121094 -0.015625 C 1.421875 -1.089844 0.796875 -2.105469 0.828125 -2.816406 C 0.855469 -3.382812 1.148438 -3.878906 1.625 -4.167969 C 2.019531 -4.398438 2.453125 -4.445312 2.789062 -4.285156 C 2.917969 -4.226562 3.09375 -4.285156 3.152344 -4.429688 C 3.222656 -4.558594 3.164062 -4.734375 3.019531 -4.792969 C 2.527344 -5.023438 1.886719 -4.964844 1.335938 -4.648438 C 0.695312 -4.253906 0.320312 -3.601562 0.277344 -2.847656 C 0.230469 -1.960938 0.871094 -0.898438 1.65625 0.289062 C 1.902344 0.667969 2.0625 1.03125 2.164062 1.378906 C 1.03125 2.917969 -0.1875 4.894531 0.4375 5.503906 C 0.539062 5.605469 0.667969 5.648438 0.796875 5.648438 C 1.03125 5.648438 1.292969 5.53125 1.570312 5.316406 C 2.351562 4.660156 3.164062 3.179688 2.773438 1.496094 C 2.933594 1.292969 3.09375 1.074219 3.265625 0.855469 C 3.558594 0.492188 5.359375 -1.613281 6.492188 -2.933594 C 6.59375 -3.050781 6.578125 -3.222656 6.460938 -3.324219 Z M 1.742188 4.269531 C 1.351562 4.851562 0.957031 5.082031 0.828125 5.097656 C 0.769531 4.894531 0.957031 4.050781 2.308594 2.136719 C 2.367188 3.179688 1.929688 3.980469 1.742188 4.269531 Z M 1.742188 4.269531 "/></g></g></g><g fill="#1c2120" fill-opacity="1"><g transform="translate(212.685254, 121.836589)"><g><path d="M 12.257812 -8.566406 C 12.066406 -8.828125 11.226562 -8.988281 2.207031 -8.785156 C 2.496094 -9.960938 2.757812 -11.023438 2.992188 -11.878906 C 3.035156 -12.039062 2.949219 -12.183594 2.804688 -12.226562 C 2.65625 -12.269531 2.496094 -12.183594 2.453125 -12.039062 C 2.207031 -11.125 1.929688 -10.019531 1.625 -8.769531 C 0.828125 -8.757812 -0.0429688 -8.742188 -0.988281 -8.714844 C -2.28125 -8.683594 -3.296875 -8.65625 -3.6875 -8.65625 C -3.847656 -8.65625 -3.980469 -8.523438 -3.980469 -8.378906 C -3.980469 -8.21875 -3.847656 -8.089844 -3.6875 -8.089844 C -3.28125 -8.101562 -2.265625 -8.117188 -0.972656 -8.160156 C -0.289062 -8.175781 0.550781 -8.191406 1.496094 -8.21875 C 0.871094 -5.578125 0.160156 -2.410156 -0.480469 0.683594 C -0.945312 2.949219 -1.320312 4.910156 -1.570312 6.347656 C -1.699219 7.101562 -1.785156 7.695312 -1.828125 8.101562 C -1.886719 8.65625 -1.917969 8.976562 -1.640625 9.078125 C -1.597656 9.078125 -1.570312 9.089844 -1.523438 9.089844 C -1.277344 9.089844 -1.148438 8.742188 -1.03125 8.421875 C -0.972656 8.277344 -1.046875 8.117188 -1.191406 8.058594 C -1.21875 8.058594 -1.234375 8.046875 -1.261719 8.046875 C -1.117188 6.914062 -0.683594 4.371094 0.160156 0.363281 C 0.785156 -2.671875 1.464844 -5.707031 2.078125 -8.234375 C 6.070312 -8.320312 11.253906 -8.394531 11.851562 -8.191406 C 11.953125 -8.101562 12.082031 -8.101562 12.199219 -8.175781 C 12.316406 -8.261719 12.34375 -8.4375 12.257812 -8.566406 Z M 12.257812 -8.566406 "/></g></g></g><g fill="#1c2120" fill-opacity="1"><g transform="translate(214.616431, 121.836589)"><g/></g></g><g fill="#1c2120" fill-opacity="1"><g transform="translate(219.07411, 121.836589)"><g><path d="M 5.839844 -3.238281 C 5.707031 -3.3125 5.53125 -3.265625 5.460938 -3.121094 C 5.113281 -2.527344 4.195312 -0.914062 3.675781 -0.972656 C 3.574219 -0.988281 3.28125 -1.132812 2.992188 -2.148438 C 2.789062 -2.859375 2.511719 -3.527344 1.976562 -3.558594 C 1.582031 -3.585938 1.148438 -3.28125 0.480469 -2.03125 C 0.652344 -2.65625 0.84375 -3.28125 0.988281 -3.789062 C 1.046875 -3.980469 1.089844 -4.140625 1.132812 -4.296875 C 1.175781 -4.445312 1.089844 -4.605469 0.945312 -4.648438 C 0.796875 -4.691406 0.640625 -4.605469 0.59375 -4.445312 C 0.550781 -4.296875 0.507812 -4.125 0.449219 -3.949219 C 0.0742188 -2.65625 -0.492188 -0.695312 -0.640625 0.492188 C -0.652344 0.625 -0.566406 0.753906 -0.4375 0.785156 C -0.40625 0.796875 -0.390625 0.796875 -0.363281 0.796875 C -0.246094 0.796875 -0.144531 0.726562 -0.101562 0.625 C 1.261719 -2.773438 1.816406 -3.007812 1.945312 -3.007812 C 1.976562 -3.007812 2.179688 -2.949219 2.453125 -1.988281 C 2.746094 -0.988281 3.121094 -0.480469 3.617188 -0.421875 C 4.355469 -0.335938 5.023438 -1.25 5.941406 -2.847656 C 6.027344 -2.992188 5.96875 -3.152344 5.839844 -3.238281 Z M 5.839844 -3.238281 "/></g></g></g><g fill="#1c2120" fill-opacity="1"><g transform="translate(224.257794, 121.836589)"><g><path d="M 5.257812 -3.152344 C 5.125 -3.253906 4.953125 -3.222656 4.863281 -3.109375 C 4.253906 -2.324219 3.253906 -1.671875 2.484375 -1.816406 C 2.496094 -1.917969 2.511719 -2.019531 2.511719 -2.121094 C 2.613281 -3.761719 2.105469 -4.09375 1.800781 -4.152344 C 1.453125 -4.226562 1.089844 -3.964844 0.914062 -3.527344 C 0.84375 -3.558594 0.753906 -3.558594 0.683594 -3.5 C 0.101562 -3.136719 -0.378906 -2.207031 -0.117188 -1.207031 C 0.0585938 -0.609375 0.464844 -0.230469 1.003906 -0.230469 C 1.511719 -0.230469 2.046875 -0.609375 2.324219 -1.277344 C 3.339844 -1.058594 4.558594 -1.816406 5.300781 -2.757812 C 5.402344 -2.890625 5.375 -3.0625 5.257812 -3.152344 Z M 1.015625 -0.785156 C 1.003906 -0.785156 1.003906 -0.785156 1.003906 -0.785156 C 0.640625 -0.796875 0.480469 -1.148438 0.4375 -1.351562 C 0.289062 -1.84375 0.40625 -2.527344 0.8125 -2.90625 C 0.84375 -2.410156 1.117188 -1.875 1.816406 -1.496094 C 1.613281 -1.03125 1.261719 -0.785156 1.015625 -0.785156 Z M 1.960938 -2.148438 C 1.945312 -2.121094 1.945312 -2.089844 1.945312 -2.0625 C 1.394531 -2.425781 1.308594 -2.890625 1.410156 -3.253906 C 1.480469 -3.484375 1.625 -3.601562 1.699219 -3.601562 C 1.773438 -3.585938 2.019531 -3.3125 1.960938 -2.148438 Z M 1.960938 -2.148438 "/></g></g></g><g fill="#1c2120" fill-opacity="1"><g transform="translate(228.904231, 121.836589)"><g><path d="M 12.257812 -8.566406 C 12.066406 -8.828125 11.226562 -8.988281 2.207031 -8.785156 C 2.496094 -9.960938 2.757812 -11.023438 2.992188 -11.878906 C 3.035156 -12.039062 2.949219 -12.183594 2.804688 -12.226562 C 2.65625 -12.269531 2.496094 -12.183594 2.453125 -12.039062 C 2.207031 -11.125 1.929688 -10.019531 1.625 -8.769531 C 0.828125 -8.757812 -0.0429688 -8.742188 -0.988281 -8.714844 C -2.28125 -8.683594 -3.296875 -8.65625 -3.6875 -8.65625 C -3.847656 -8.65625 -3.980469 -8.523438 -3.980469 -8.378906 C -3.980469 -8.21875 -3.847656 -8.089844 -3.6875 -8.089844 C -3.28125 -8.101562 -2.265625 -8.117188 -0.972656 -8.160156 C -0.289062 -8.175781 0.550781 -8.191406 1.496094 -8.21875 C 0.871094 -5.578125 0.160156 -2.410156 -0.480469 0.683594 C -0.945312 2.949219 -1.320312 4.910156 -1.570312 6.347656 C -1.699219 7.101562 -1.785156 7.695312 -1.828125 8.101562 C -1.886719 8.65625 -1.917969 8.976562 -1.640625 9.078125 C -1.597656 9.078125 -1.570312 9.089844 -1.523438 9.089844 C -1.277344 9.089844 -1.148438 8.742188 -1.03125 8.421875 C -0.972656 8.277344 -1.046875 8.117188 -1.191406 8.058594 C -1.21875 8.058594 -1.234375 8.046875 -1.261719 8.046875 C -1.117188 6.914062 -0.683594 4.371094 0.160156 0.363281 C 0.785156 -2.671875 1.464844 -5.707031 2.078125 -8.234375 C 6.070312 -8.320312 11.253906 -8.394531 11.851562 -8.191406 C 11.953125 -8.101562 12.082031 -8.101562 12.199219 -8.175781 C 12.316406 -8.261719 12.34375 -8.4375 12.257812 -8.566406 Z M 12.257812 -8.566406 "/></g></g></g><g fill="#1c2120" fill-opacity="1"><g transform="translate(230.835409, 121.836589)"><g/></g></g><g fill="#1c2120" fill-opacity="1"><g transform="translate(235.293088, 121.836589)"><g><path d="M 12.257812 -8.566406 C 12.066406 -8.828125 11.226562 -8.988281 2.207031 -8.785156 C 2.496094 -9.960938 2.757812 -11.023438 2.992188 -11.878906 C 3.035156 -12.039062 2.949219 -12.183594 2.804688 -12.226562 C 2.65625 -12.269531 2.496094 -12.183594 2.453125 -12.039062 C 2.207031 -11.125 1.929688 -10.019531 1.625 -8.769531 C 0.828125 -8.757812 -0.0429688 -8.742188 -0.988281 -8.714844 C -2.28125 -8.683594 -3.296875 -8.65625 -3.6875 -8.65625 C -3.847656 -8.65625 -3.980469 -8.523438 -3.980469 -8.378906 C -3.980469 -8.21875 -3.847656 -8.089844 -3.6875 -8.089844 C -3.28125 -8.101562 -2.265625 -8.117188 -0.972656 -8.160156 C -0.289062 -8.175781 0.550781 -8.191406 1.496094 -8.21875 C 0.871094 -5.578125 0.160156 -2.410156 -0.480469 0.683594 C -0.945312 2.949219 -1.320312 4.910156 -1.570312 6.347656 C -1.699219 7.101562 -1.785156 7.695312 -1.828125 8.101562 C -1.886719 8.65625 -1.917969 8.976562 -1.640625 9.078125 C -1.597656 9.078125 -1.570312 9.089844 -1.523438 9.089844 C -1.277344 9.089844 -1.148438 8.742188 -1.03125 8.421875 C -0.972656 8.277344 -1.046875 8.117188 -1.191406 8.058594 C -1.21875 8.058594 -1.234375 8.046875 -1.261719 8.046875 C -1.117188 6.914062 -0.683594 4.371094 0.160156 0.363281 C 0.785156 -2.671875 1.464844 -5.707031 2.078125 -8.234375 C 6.070312 -8.320312 11.253906 -8.394531 11.851562 -8.191406 C 11.953125 -8.101562 12.082031 -8.101562 12.199219 -8.175781 C 12.316406 -8.261719 12.34375 -8.4375 12.257812 -8.566406 Z M 12.257812 -8.566406 "/></g></g></g><g fill="#1c2120" fill-opacity="1"><g transform="translate(237.224265, 121.836589)"><g><path d="M 6.867188 -3.3125 C 6.738281 -3.398438 6.5625 -3.355469 6.492188 -3.222656 C 4.429688 0.101562 3.703125 0.0273438 3.628906 0.015625 C 3.484375 -0.0273438 3.324219 -0.320312 3.28125 -1.03125 C 3.265625 -1.351562 3.195312 -2.308594 2.554688 -2.394531 C 1.816406 -2.496094 0.929688 -1.207031 0.128906 0.464844 C 0.625 -1.742188 1.335938 -4.777344 1.859375 -6.925781 C 3.804688 -10.425781 4.792969 -13.054688 4.386719 -13.621094 C 4.296875 -13.753906 4.152344 -13.796875 4.007812 -13.765625 C 3.382812 -13.652344 2.410156 -11.53125 1.757812 -8.84375 C 1.726562 -8.742188 -0.871094 1.875 -0.957031 3.179688 C -0.957031 3.324219 -0.871094 3.441406 -0.726562 3.472656 C -0.710938 3.472656 -0.695312 3.472656 -0.683594 3.472656 C -0.566406 3.472656 -0.449219 3.398438 -0.40625 3.296875 C 0.855469 -0.335938 2.089844 -1.84375 2.453125 -1.84375 C 2.46875 -1.84375 2.46875 -1.84375 2.46875 -1.84375 C 2.527344 -1.84375 2.6875 -1.671875 2.730469 -1.003906 C 2.746094 -0.652344 2.816406 0.378906 3.484375 0.550781 C 3.777344 0.625 4.632812 0.84375 6.957031 -2.933594 C 7.042969 -3.0625 7 -3.238281 6.867188 -3.3125 Z M 3.90625 -12.96875 C 3.789062 -12.386719 3.382812 -11.136719 2.410156 -9.179688 C 2.960938 -11.269531 3.558594 -12.476562 3.90625 -12.96875 Z M 3.90625 -12.96875 "/></g></g></g><g fill="#1c2120" fill-opacity="1"><g transform="translate(243.482431, 121.836589)"><g><path d="M 4.910156 -3.238281 C 4.777344 -3.324219 4.605469 -3.296875 4.515625 -3.164062 C 3.425781 -1.640625 2.542969 -0.683594 1.671875 -0.0585938 C 1.234375 0.246094 0.8125 0.304688 0.539062 0.101562 C 0.363281 -0.0273438 -0.175781 -0.609375 0.449219 -2.644531 C 1.859375 -3.804688 2.628906 -4.910156 2.425781 -5.488281 C 2.351562 -5.664062 2.179688 -5.78125 1.988281 -5.78125 C 1.410156 -5.765625 0.523438 -4.761719 -0.0585938 -2.890625 C -0.769531 -0.582031 -0.1875 0.261719 0.21875 0.550781 C 0.421875 0.710938 0.652344 0.785156 0.914062 0.785156 C 1.25 0.785156 1.625 0.652344 1.988281 0.390625 C 2.917969 -0.277344 3.832031 -1.261719 4.964844 -2.847656 C 5.054688 -2.976562 5.023438 -3.152344 4.910156 -3.238281 Z M 1.875 -5.171875 C 1.816406 -4.9375 1.570312 -4.472656 0.886719 -3.777344 C 1.261719 -4.617188 1.671875 -5.023438 1.875 -5.171875 Z M 1.875 -5.171875 "/></g></g></g><g fill="#1c2120" fill-opacity="1"><g transform="translate(247.707788, 121.836589)"><g/></g></g><g fill="#1c2120" fill-opacity="1"><g transform="translate(252.165467, 121.836589)"><g><path d="M 6.375 -3.28125 C 6.230469 -3.355469 6.054688 -3.296875 5.996094 -3.152344 C 4.328125 0.363281 2.746094 2.164062 2.394531 2.105469 C 2.367188 2.089844 1.859375 1.597656 3.5 -3.441406 C 3.542969 -3.574219 3.644531 -3.878906 3.414062 -4.039062 C 3.195312 -4.210938 2.949219 -4.050781 2.542969 -3.777344 C 2.105469 -3.5 1.511719 -3.109375 1.046875 -3.164062 C 2.527344 -5.722656 2.382812 -6.289062 2.046875 -6.507812 C 1.523438 -6.8125 0.769531 -5.925781 0.421875 -5.417969 C -0.289062 -4.3125 -0.277344 -3.3125 0.480469 -2.804688 C 1.25 -2.265625 2.25 -2.917969 2.847656 -3.3125 C 2.859375 -3.324219 2.859375 -3.324219 2.875 -3.339844 C 2.308594 -1.554688 1.945312 -0.144531 1.816406 0.828125 C 1.65625 1.902344 1.773438 2.46875 2.179688 2.628906 C 2.25 2.644531 2.308594 2.65625 2.382812 2.65625 C 3.542969 2.65625 5.5625 -0.914062 6.507812 -2.90625 C 6.5625 -3.050781 6.507812 -3.222656 6.375 -3.28125 Z M 0.507812 -4.285156 C 0.710938 -5.066406 1.394531 -5.792969 1.699219 -5.96875 C 1.671875 -5.734375 1.511719 -5.082031 0.582031 -3.472656 C 0.480469 -3.628906 0.40625 -3.878906 0.507812 -4.285156 Z M 0.507812 -4.285156 "/></g></g></g><g fill="#1c2120" fill-opacity="1"><g transform="translate(257.958989, 121.836589)"><g><path d="M 4.910156 -3.238281 C 4.777344 -3.324219 4.605469 -3.296875 4.515625 -3.164062 C 3.425781 -1.640625 2.542969 -0.683594 1.671875 -0.0585938 C 1.234375 0.246094 0.8125 0.304688 0.539062 0.101562 C 0.363281 -0.0273438 -0.175781 -0.609375 0.449219 -2.644531 C 1.859375 -3.804688 2.628906 -4.910156 2.425781 -5.488281 C 2.351562 -5.664062 2.179688 -5.78125 1.988281 -5.78125 C 1.410156 -5.765625 0.523438 -4.761719 -0.0585938 -2.890625 C -0.769531 -0.582031 -0.1875 0.261719 0.21875 0.550781 C 0.421875 0.710938 0.652344 0.785156 0.914062 0.785156 C 1.25 0.785156 1.625 0.652344 1.988281 0.390625 C 2.917969 -0.277344 3.832031 -1.261719 4.964844 -2.847656 C 5.054688 -2.976562 5.023438 -3.152344 4.910156 -3.238281 Z M 1.875 -5.171875 C 1.816406 -4.9375 1.570312 -4.472656 0.886719 -3.777344 C 1.261719 -4.617188 1.671875 -5.023438 1.875 -5.171875 Z M 1.875 -5.171875 "/></g></g></g><g fill="#1c2120" fill-opacity="1"><g transform="translate(262.184346, 121.836589)"><g><path d="M 6.460938 -3.324219 C 6.347656 -3.425781 6.171875 -3.414062 6.070312 -3.296875 C 4.921875 -1.976562 3.121094 0.128906 2.832031 0.507812 C 2.746094 0.609375 2.65625 0.726562 2.570312 0.84375 C 2.453125 0.550781 2.308594 0.277344 2.121094 -0.015625 C 1.421875 -1.089844 0.796875 -2.105469 0.828125 -2.816406 C 0.855469 -3.382812 1.148438 -3.878906 1.625 -4.167969 C 2.019531 -4.398438 2.453125 -4.445312 2.789062 -4.285156 C 2.917969 -4.226562 3.09375 -4.285156 3.152344 -4.429688 C 3.222656 -4.558594 3.164062 -4.734375 3.019531 -4.792969 C 2.527344 -5.023438 1.886719 -4.964844 1.335938 -4.648438 C 0.695312 -4.253906 0.320312 -3.601562 0.277344 -2.847656 C 0.230469 -1.960938 0.871094 -0.898438 1.65625 0.289062 C 1.902344 0.667969 2.0625 1.03125 2.164062 1.378906 C 1.03125 2.917969 -0.1875 4.894531 0.4375 5.503906 C 0.539062 5.605469 0.667969 5.648438 0.796875 5.648438 C 1.03125 5.648438 1.292969 5.53125 1.570312 5.316406 C 2.351562 4.660156 3.164062 3.179688 2.773438 1.496094 C 2.933594 1.292969 3.09375 1.074219 3.265625 0.855469 C 3.558594 0.492188 5.359375 -1.613281 6.492188 -2.933594 C 6.59375 -3.050781 6.578125 -3.222656 6.460938 -3.324219 Z M 1.742188 4.269531 C 1.351562 4.851562 0.957031 5.082031 0.828125 5.097656 C 0.769531 4.894531 0.957031 4.050781 2.308594 2.136719 C 2.367188 3.179688 1.929688 3.980469 1.742188 4.269531 Z M 1.742188 4.269531 "/></g></g></g><g fill="#1c2120" fill-opacity="1"><g transform="translate(268.035956, 121.836589)"><g><path d="M 12.257812 -8.566406 C 12.066406 -8.828125 11.226562 -8.988281 2.207031 -8.785156 C 2.496094 -9.960938 2.757812 -11.023438 2.992188 -11.878906 C 3.035156 -12.039062 2.949219 -12.183594 2.804688 -12.226562 C 2.65625 -12.269531 2.496094 -12.183594 2.453125 -12.039062 C 2.207031 -11.125 1.929688 -10.019531 1.625 -8.769531 C 0.828125 -8.757812 -0.0429688 -8.742188 -0.988281 -8.714844 C -2.28125 -8.683594 -3.296875 -8.65625 -3.6875 -8.65625 C -3.847656 -8.65625 -3.980469 -8.523438 -3.980469 -8.378906 C -3.980469 -8.21875 -3.847656 -8.089844 -3.6875 -8.089844 C -3.28125 -8.101562 -2.265625 -8.117188 -0.972656 -8.160156 C -0.289062 -8.175781 0.550781 -8.191406 1.496094 -8.21875 C 0.871094 -5.578125 0.160156 -2.410156 -0.480469 0.683594 C -0.945312 2.949219 -1.320312 4.910156 -1.570312 6.347656 C -1.699219 7.101562 -1.785156 7.695312 -1.828125 8.101562 C -1.886719 8.65625 -1.917969 8.976562 -1.640625 9.078125 C -1.597656 9.078125 -1.570312 9.089844 -1.523438 9.089844 C -1.277344 9.089844 -1.148438 8.742188 -1.03125 8.421875 C -0.972656 8.277344 -1.046875 8.117188 -1.191406 8.058594 C -1.21875 8.058594 -1.234375 8.046875 -1.261719 8.046875 C -1.117188 6.914062 -0.683594 4.371094 0.160156 0.363281 C 0.785156 -2.671875 1.464844 -5.707031 2.078125 -8.234375 C 6.070312 -8.320312 11.253906 -8.394531 11.851562 -8.191406 C 11.953125 -8.101562 12.082031 -8.101562 12.199219 -8.175781 C 12.316406 -8.261719 12.34375 -8.4375 12.257812 -8.566406 Z M 12.257812 -8.566406 "/></g></g></g><path stroke-linecap="butt" transform="matrix(0.000000000000000046, -0.751315, 0.75, 0.000000000000000046, 26.04938, 118.257629)" fill="none" stroke-linejoin="miter" d="M -0.000244636 1.001869 L 124.786209 1.001869 " stroke="#000000" stroke-width="2" stroke-opacity="1" stroke-miterlimit="4"/><path stroke-linecap="butt" transform="matrix(0.000000000000000046, -0.752912, 0.75, 0.000000000000000046, 273.885779, 98.689062)" fill="none" stroke-linejoin="miter" d="M 0.0020744 1.001254 L 100.611445 1.001254 " stroke="#000000" stroke-width="2" stroke-opacity="1" stroke-miterlimit="4"/></svg>